<?xml version="1.0" encoding="UTF-8"?>
<svg version="1.1" xmlns="http://www.w3.org/2000/svg" width="917" height="363">
<path d="M0 0 C3.6016391 2.70122933 5.11047246 4.66355324 6 9 C6.6084375 9.13535156 7.216875 9.27070313 7.84375 9.41015625 C16.70432782 11.58620992 24.78646184 15.10231715 33 19 C33.95229492 19.45052734 33.95229492 19.45052734 34.92382812 19.91015625 C49.53474622 26.9489927 62.32881153 36.78758466 74 48 C74.49564453 48.4645459 74.99128906 48.9290918 75.50195312 49.40771484 C99.59441594 72.04379853 114.32411296 101.05760226 122 133 C122.17934082 133.73524902 122.35868164 134.47049805 122.54345703 135.22802734 C127.55175388 156.89749049 127.2530559 183.42140918 122 205 C121.70198486 206.24813477 121.70198486 206.24813477 121.39794922 207.52148438 C115.61774999 231.02329817 105.31028221 253.17547966 90 272 C89.55285645 272.55397461 89.10571289 273.10794922 88.64501953 273.67871094 C61.50127787 307.09356078 24.00541303 328.45290912 -19 333 C-23.92094678 333.27696212 -28.82198361 333.33454 -33.75 333.3125 C-35.06258789 333.30758545 -36.37517578 333.3026709 -37.72753906 333.29760742 C-47.76800511 333.17689898 -57.24828437 332.37365206 -67 330 C-67.74636719 329.82307617 -68.49273437 329.64615234 -69.26171875 329.46386719 C-84.06184844 325.87539353 -106.04054002 320.43918998 -115 307 C-110.53219169 307.64924174 -106.74393063 309.36849821 -102.6875 311.25 C-65.53522535 327.90860057 -22.74978736 328.41472557 15.29541016 314.13867188 C54.40427908 298.56827383 85.50292656 268.52323013 102.2824707 229.8918457 C105.90839996 221.14328678 108.67946569 212.17486195 111 203 C111.17934082 202.30600098 111.35868164 201.61200195 111.54345703 200.89697266 C120.49461973 164.44342922 112.65216467 121.71213379 93.65136719 89.72998047 C73.88177586 57.78366119 46.19624445 34.67256655 11 21.375 C10.3184082 21.10284668 9.63681641 20.83069336 8.93457031 20.55029297 C3.5660975 18.62998106 0.43056405 19.44112201 -5 21 C-9.15671745 20.1305507 -11.6144266 18.5783601 -14 15 C-44.53210297 6.74927275 -81.367766 15.40522647 -109 29 C-109.64163086 29.31195313 -110.28326172 29.62390625 -110.94433594 29.9453125 C-120.90080884 34.8414491 -129.67861056 40.62278895 -138.14453125 47.82421875 C-139.06298828 48.40623047 -139.06298828 48.40623047 -140 49 C-143.73044765 47.75651745 -144.79540326 46.19286425 -147 43 C-147 42.01 -147 41.02 -147 40 C-144.89498675 38.15849641 -142.83608747 36.54825123 -140.5625 34.9375 C-139.88582275 34.45361816 -139.20914551 33.96973633 -138.51196289 33.47119141 C-100.77989183 6.91466668 -57.47392753 -2.15106266 -12 4 C-12 3.34 -12 2.68 -12 2 C-7.98850232 -0.67433178 -4.71559339 -0.81902411 0 0 Z " fill="#FFFFFF" transform="translate(159,11)"/>
<path d="M0 0 C1.62106628 1.54495989 3.22635709 3.10670665 4.8125 4.6875 C5.46347656 5.31527344 6.11445312 5.94304688 6.78515625 6.58984375 C18.85890117 19.14123132 20.49965568 35.17309394 20.1796875 51.6796875 C19.51448121 66.79072108 12.44034629 79.4936176 1.75 90 C-11.70144777 101.06112082 -28.90908713 106.13252856 -46.1875 104.6875 C-62.81480588 102.71771463 -77.33715647 95.10581778 -88.171875 82.3515625 C-98.5301163 68.67337207 -101.78074924 51.62221587 -99.5 34.875 C-97.65275033 24.7215857 -93.35379693 15.90397238 -87.1875 7.6875 C-86.57648437 6.87023437 -85.96546875 6.05296875 -85.3359375 5.2109375 C-75.70785435 -6.0976838 -61.02972961 -12.40172025 -46.5 -14.12890625 C-29.71759717 -15.05906301 -12.84049264 -11.25476915 0 0 Z M-72.1875 16.6875 C-80.60638973 27.91881359 -82.61132831 39.97534286 -81.1875 53.6875 C-78.85955543 65.28776616 -72.82520657 74.82298786 -63.1875 81.6875 C-53.68943519 87.47226645 -43.5466357 90.23818025 -32.4921875 88.1875 C-20.70124507 85.29724113 -10.48195481 79.25735755 -3.875 68.875 C2.28291553 57.66658699 3.56723927 45.80587727 1.15625 33.27734375 C-2.65207876 20.55555586 -10.62589495 11.64998644 -22.1875 5.375 C-39.84988483 -2.77417954 -59.31524286 2.60692754 -72.1875 16.6875 Z " fill="#FFFFFF" transform="translate(897.1875,26.3125)"/>
<path d="M0 0 C0.63164062 0.43699219 1.26328125 0.87398437 1.9140625 1.32421875 C13.40820431 10.06291561 19.50847134 24.39187127 21.68359375 38.265625 C23.59124249 54.75147831 19.67429908 70.71094826 9.70703125 84.07421875 C-1.83070433 97.51962444 -17.50463213 104.77953509 -35.015625 106.25390625 C-52.30885482 106.91411576 -68.47307509 100.64636849 -81.52734375 89.4140625 C-92.29069923 78.90576284 -98.1478976 64.7068282 -98.38061523 49.77856445 C-98.34701749 32.03165104 -94.85082245 17.92447051 -82.1875 4.625 C-59.17118744 -17.07212722 -25.15623213 -18.51197813 0 0 Z M-71 18 C-79.40265928 29.29226157 -81.40144687 41.24664992 -80 55 C-77.97691728 65.51280485 -72.38457317 75.02375989 -63.94140625 81.69140625 C-54.57005178 88.00811399 -44.32711486 91.27834582 -33 90 C-20.59267064 87.4482463 -10.29008 81.50738572 -3 71 C3.29168645 60.60867743 5.46365178 47.95578409 2.953125 36.046875 C-0.8291922 23.955861 -6.92073094 14.55192997 -17.95703125 8.0625 C-36.18557798 -1.41773845 -57.12309413 2.95204722 -71 18 Z " fill="#FFFFFF" transform="translate(424,25)"/>
<path d="M0 0 C0.75394043 0.18804199 1.50788086 0.37608398 2.28466797 0.56982422 C27.99356609 7.0629094 50.08934385 19.53896785 69 38 C69.91136719 38.83789062 70.82273438 39.67578125 71.76171875 40.5390625 C97.49800384 64.84351433 112.90460291 101.75678931 114 137 C114.03996094 138.11890625 114.07992188 139.2378125 114.12109375 140.390625 C114.87812593 182.25005152 99.32380282 219.99133388 70.71484375 250.32421875 C66.40379534 254.57323769 61.81285776 258.33699524 57 262 C55.72576172 262.99773437 55.72576172 262.99773437 54.42578125 264.015625 C23.48609261 287.50943939 -15.2765679 296.59256668 -53.54248047 291.37548828 C-86.38431761 286.35753224 -117.40927968 269.34726579 -138 243 C-141.86889292 237.52226052 -145.05368406 232.45307662 -147 226 C-146.34 226 -145.68 226 -145 226 C-143.58984375 227.6171875 -143.58984375 227.6171875 -141.9375 229.875 C-119.8074664 258.95759035 -87.16248701 276.85787739 -51.14282227 282.22631836 C-16.88430734 286.64255173 19.21744638 277.62896197 47 257 C48.19882812 256.13375 48.19882812 256.13375 49.421875 255.25 C62.25708419 245.51873029 73.44980847 233.63985393 82 220 C82.38881348 219.38044434 82.77762695 218.76088867 83.17822266 218.12255859 C103.3381284 185.40320601 108.55369373 147.62815974 99.96875 110.37109375 C94.30000378 87.51587435 82.93294271 67.24294828 67 50 C66.52836426 49.48453613 66.05672852 48.96907227 65.57080078 48.43798828 C41.86071951 22.8009109 8.17326026 8.25849446 -26.47167969 6.08886719 C-34.32516457 5.81282736 -42.17243266 6.41313398 -50 7 C-51.4049365 7.09912032 -52.80988354 7.19809138 -54.21484375 7.296875 C-57.14519216 7.5132308 -60.07282812 7.74475496 -63 8 C-63.99 4.04 -63.99 4.04 -65 0 C-45.05059229 -5.24984413 -20.0085838 -5.37126729 0 0 Z " fill="#FFFFFF" transform="translate(152,33)"/>
<path d="M0 0 C-0.99 5.28 -1.98 10.56 -3 16 C-7.10482466 15.17903507 -9.84391758 14.26748269 -13.5625 12.5625 C-26.36751087 7.1684478 -39.61859799 6.46561502 -52.8125 11.125 C-63.86661839 15.81829357 -71.69240599 23.06627371 -76.3125 34.1875 C-80.96154359 46.32993874 -80.00987142 59.1230151 -75 71 C-69.32954999 82.3236646 -59.71858358 88.03924969 -48 92 C-36.10125653 95.09288531 -24.28418919 93.15050637 -13 89 C-12.67 81.41 -12.34 73.82 -12 66 C-20.58 66 -29.16 66 -38 66 C-38 61.05 -38 56.1 -38 51 C-23.48 51 -8.96 51 6 51 C6.22999349 57.58803574 6.42880028 64.16211898 6.54931641 70.75097656 C6.59954195 72.99006358 6.6677401 75.22882362 6.75439453 77.46679688 C6.87603754 80.68962101 6.93246586 83.90810845 6.9765625 87.1328125 C7.02817535 88.12991241 7.07978821 89.12701233 7.13296509 90.15432739 C7.13531652 93.08235877 7.02039132 95.25125623 6 98 C2.9841902 100.76042083 -0.26524561 102.39233444 -4 104 C-4.92783295 104.40268097 -5.85566589 104.80536194 -6.81161499 105.22024536 C-23.03326925 111.89961033 -43.63334899 112.47203398 -60.05371094 106.21777344 C-69.36405004 102.298316 -76.98456336 97.35142499 -84 90 C-84.56976562 89.44957031 -85.13953125 88.89914063 -85.7265625 88.33203125 C-95.2776386 78.41360607 -98.39275034 64.55435993 -98.3125 51.25 C-98.30686035 50.27571045 -98.3012207 49.3014209 -98.29541016 48.29760742 C-98.01045131 31.38769826 -92.13190691 18.8089277 -80 7 C-58.93509379 -12.26256129 -24.40437161 -13.94535521 0 0 Z " fill="#FFFFFF" transform="translate(765,21)"/>
<path d="M0 0 C2.64 0 5.28 0 8 0 C15.38210099 16.40331579 22.35424011 32.95996813 29.21289062 49.5871582 C29.94654419 51.36542618 30.68026894 53.14366479 31.4140625 54.921875 C31.78271423 55.81529099 32.15136597 56.70870697 32.53118896 57.62919617 C35.33535344 64.41510965 38.17302368 71.18652301 41.0234375 77.953125 C41.43615402 78.9339505 41.84887054 79.914776 42.27409363 80.92532349 C44.69707544 86.68317026 44.69707544 86.68317026 47.12796021 92.43768311 C48.24373928 95.07418879 49.35469479 97.71268226 50.46484375 100.3515625 C50.9589827 101.51295746 50.9589827 101.51295746 51.46310425 102.69781494 C51.76910553 103.42740417 52.07510681 104.15699341 52.39038086 104.90869141 C52.65443222 105.53337311 52.91848358 106.15805481 53.1905365 106.80166626 C54.29830598 109.81013671 55.1192607 112.91741246 56 116 C50.06 116 44.12 116 38 116 C35.04408935 110.0881787 32.30981288 104.25994499 29.75 98.1875 C29.38648438 97.34251953 29.02296875 96.49753906 28.6484375 95.62695312 C28.30554688 94.81548828 27.96265625 94.00402344 27.609375 93.16796875 C27.29967773 92.43860107 26.98998047 91.7092334 26.67089844 90.95776367 C26 89 26 89 26 86 C11.81 86.33 -2.38 86.66 -17 87 C-20.96 96.57 -24.92 106.14 -29 116 C-34.94 116 -40.88 116 -47 116 C-46.30623717 112.53118586 -45.73598513 110.04031498 -44.42797852 106.89208984 C-44.10508347 106.10869232 -43.78218842 105.3252948 -43.44950867 104.51815796 C-43.09620987 103.67427521 -42.74291107 102.83039246 -42.37890625 101.9609375 C-42.00735916 101.06347809 -41.63581207 100.16601868 -41.25300598 99.24136353 C-40.02726947 96.28404756 -38.79495289 93.32952252 -37.5625 90.375 C-36.70555012 88.31133982 -35.84894658 86.24753579 -34.99267578 84.18359375 C-28.4004849 68.30763858 -21.75931845 52.45199861 -15.11010742 36.59985352 C-10.00557281 24.42720754 -4.95216202 12.23560499 0 0 Z M4 33 C1.86160647 38.39261901 -0.2745808 43.78610453 -2.40869141 49.18041992 C-3.13561784 51.01692555 -3.86315595 52.85318919 -4.59130859 54.68920898 C-5.63538401 57.32212569 -6.6772856 59.95589335 -7.71875 62.58984375 C-8.04685669 63.41588608 -8.37496338 64.24192841 -8.7130127 65.09300232 C-10.29321109 68.45342534 -10.29321109 68.45342534 -11 72 C-1.1 72 8.8 72 19 72 C16.53413474 63.71929928 16.53413474 63.71929928 13.58984375 55.6953125 C13.15736328 54.61765625 12.72488281 53.54 12.27929688 52.4296875 C11.83650391 51.33914062 11.39371094 50.24859375 10.9375 49.125 C10.49083984 48.01125 10.04417969 46.8975 9.58398438 45.75 C6.99341221 39.28435029 6.99341221 39.28435029 4 33 Z " fill="#FFFFFF" transform="translate(596,13)"/>
<path d="M0 0 C20.19069848 4.01519572 39.69749361 14.36080952 55 28 C55.85078125 28.71929687 56.7015625 29.43859375 57.578125 30.1796875 C81.88851965 51.13435283 97.26139241 83.1415463 100 115 C101.82336944 153.67592743 91.75857527 188.21804712 65.5 217.25 C42.33016176 242.18679268 10.87206269 257.15001051 -23.17456055 259.1262207 C-59.32181184 260.41471048 -90.68035723 248.87284945 -117.5625 224.6953125 C-132.70835838 210.25941623 -147.19007047 188.28981424 -149.296875 167 C-149.3125 164.5 -149.3125 164.5 -149 161 C-147.18327541 163.72508689 -146.16606351 166.17217671 -145.09838867 169.24121094 C-134.31386955 200.12067777 -110.95190555 224.59743596 -81.75 238.8125 C-51.42995945 253.0113928 -17.27602875 253.21146958 14 242 C19.5646225 239.75475206 24.8116643 237.00326668 30 234 C30.60924316 233.65066406 31.21848633 233.30132812 31.84619141 232.94140625 C40.93169686 227.64577136 48.4951572 221.3295472 56 214 C56.72832031 213.33355469 57.45664063 212.66710937 58.20703125 211.98046875 C73.24344111 197.89310251 82.60752798 177.57916715 88 158 C88.3403125 156.77667969 88.680625 155.55335938 89.03125 154.29296875 C96.15246632 123.33545891 89.65878042 89.7028883 73.375 62.7109375 C63.36109996 46.77297283 50.65503546 34.34383719 35 24 C34.17113281 23.43667969 33.34226563 22.87335938 32.48828125 22.29296875 C22.36502642 15.77902379 10.45538293 11.54075472 -1 8 C-0.67 5.36 -0.34 2.72 0 0 Z " fill="#FFFFFF" transform="translate(149,50)"/>
<path d="M0 0 C193.71 0 387.42 0 587 0 C587 1.98 587 3.96 587 6 C393.29 6 199.58 6 0 6 C0 4.02 0 2.04 0 0 Z " fill="#FFFFFF" transform="translate(327,167)"/>
<path d="M0 0 C29.7 0 59.4 0 90 0 C90 4.95 90 9.9 90 15 C78.12 15 66.24 15 54 15 C54 47.67 54 80.34 54 114 C48.06 114 42.12 114 36 114 C36 81.33 36 48.66 36 15 C24.12 15 12.24 15 0 15 C0 10.05 0 5.1 0 0 Z " fill="#FFFFFF" transform="translate(458,15)"/>
<path d="M0 0 C13.65295307 4.64629293 24.81900971 23.63114191 31.05761719 36.00146484 C44.37391659 64.24167907 47.32455534 97.28790183 37 127 C30.49998351 144.48851524 20.96944425 158.70783241 8 172 C7.40832031 172.65355469 6.81664062 173.30710937 6.20703125 173.98046875 C-6.48635793 187.67679238 -25.33504792 196.02289504 -43 201 C-44.07378906 201.3196875 -45.14757812 201.639375 -46.25390625 201.96875 C-75.13091614 209.19636777 -107.21788023 203.41185977 -132.5546875 188.26171875 C-158.76270142 171.46075038 -175.8651539 147.58267365 -183.125 117.3671875 C-186.54150833 101.5187796 -186.14641973 84.43925919 -181 69 C-180.34 69 -179.68 69 -179 69 C-179.165 70.258125 -179.33 71.51625 -179.5 72.8125 C-182.45464255 103.57554299 -175.34507349 133.81706418 -155.5546875 158.0078125 C-135.79758416 181.14839531 -109.12212779 193.8949702 -79 197 C-53.38504787 198.99988396 -26.10394132 190.54579039 -6 174.59375 C16.8735858 154.81762894 32.95408744 128.75206921 35.22094727 98.00292969 C36.40231954 67.43272736 28.4639655 39.3760899 8 16 C4.46569312 12.19704953 0.76627865 8.57295256 -3 5 C-2.01 3.35 -1.02 1.7 0 0 Z " fill="#FFFFFF" transform="translate(191,89)"/>
<path d="M0 0 C0.66 0 1.32 0 2 0 C0.63331142 3.73159577 -1.10999885 6.84736306 -3.25 10.1875 C-6.29725291 15.33411296 -8.43223506 20.45168486 -10.3125 26.125 C-10.55452148 26.85227295 -10.79654297 27.5795459 -11.04589844 28.32885742 C-19.43645327 54.73425301 -15.71465059 81.317575 -3.1875 105.625 C9.3359575 127.81122673 30.53498067 143.1532505 54.7421875 150.2109375 C62.81835618 152.16703591 70.3562161 153.36430226 78.6875 153.3125 C80.12923584 153.30404053 80.12923584 153.30404053 81.60009766 153.29541016 C106.33614193 152.87755759 130.54156582 142.59161995 148 125 C165.77767608 105.88409522 175.08307891 81.05710657 175 55 C174.62371787 44.63795229 172.46774202 35.07665014 169.12109375 25.29296875 C168.29271833 22.85979635 167.5611084 20.50292175 167 18 C170 16 170 16 173 16 C183.13053842 43.86899108 184.53605279 72.05492305 172.5546875 99.68359375 C160.57426465 125.23982238 141.2403717 143.64956138 115 154 C89.78451918 163.03241104 61.0478457 162.33674276 36.6328125 151.05859375 C12.04908537 138.97009585 -7.12636591 118.67456093 -16.60546875 92.8125 C-25.11513652 67.80620355 -23.72826726 41.94893916 -12.625 18.0390625 C-9.24477963 11.48070015 -5.1320218 5.32851813 0 0 Z " fill="#FFFFFF" transform="translate(39,120)"/>
<path d="M0 0 C0 0.66 0 1.32 0 2 C-1.05058594 2.50789063 -2.10117188 3.01578125 -3.18359375 3.5390625 C-28.56086273 15.91910359 -43.49669866 32.16498866 -53.03125 58.890625 C-59.41208378 80.98721604 -54.9973487 105.13392499 -44.18896484 124.97021484 C-31.70431913 146.28383793 -11.54041581 158.51297983 11.79296875 164.74609375 C32.95108865 169.38743624 55.89685335 164.42058773 74.125 153.05078125 C76.84465586 151.12813565 79.43112141 149.11891578 82 147 C82.78890625 146.37351563 83.5778125 145.74703125 84.390625 145.1015625 C102.59224868 129.93354276 110.59737484 106.85655249 113 84 C114.65 84 116.3 84 118 84 C116.26261916 106.63781299 109.48640587 126.03869834 94 143 C93.34128906 143.72832031 92.68257812 144.45664063 92.00390625 145.20703125 C77.42228792 160.55147066 55.61058113 170.37949946 34.453125 171.23828125 C8.01446806 171.80666267 -14.08197938 164.44305351 -33.625 146.3046875 C-51.71092178 128.75420419 -60.73866923 106.55552399 -61.375 81.5 C-60.76433487 57.45506043 -52.33859376 36.01874831 -35.73046875 18.53515625 C-26.69130875 10.14257422 -12.886238 0 0 0 Z " fill="#FFFFFF" transform="translate(90,96)"/>
<path d="M0 0 C7 0 7 0 9.9921875 2.4921875 C10.97288871 3.60264559 11.93307236 4.73146847 12.875 5.875 C13.3918335 6.46853271 13.90866699 7.06206543 14.44116211 7.67358398 C15.48761713 8.876724 16.52640333 10.08658024 17.55712891 11.30322266 C19.51070077 13.60057028 21.53460288 15.83072094 23.5625 18.0625 C24.26632812 18.84882813 24.97015625 19.63515625 25.6953125 20.4453125 C27.42947255 22.36758483 29.17335884 24.2778507 30.9296875 26.1796875 C31.42911865 26.72101318 31.9285498 27.26233887 32.44311523 27.82006836 C33.41742309 28.87460023 34.39341883 29.92757587 35.37133789 30.97875977 C37.46384696 33.24466228 39.28363838 35.42545757 41 38 C41.33 25.46 41.66 12.92 42 0 C45.3 0 48.6 0 52 0 C52 19.8 52 39.6 52 60 C47.02761069 59.00552214 46.32289009 58.82779426 43.125 55.4375 C42.43148437 54.70789063 41.73796875 53.97828125 41.0234375 53.2265625 C38.65575186 50.62119413 36.32924104 47.98674185 34.03515625 45.31640625 C31.03068534 41.89673015 27.91592739 38.57958448 24.79003906 35.27075195 C19.58992277 29.70160086 14.90949069 23.89138883 10 18 C9.67 31.53 9.34 45.06 9 59 C6.03 59 3.06 59 0 59 C0 39.53 0 20.06 0 0 Z " fill="#FFFFFF" transform="translate(769,209)"/>
<path d="M0 0 C6.47998149 6.42435933 10.08246505 13.89147433 10.1953125 23.0546875 C10.01714929 32.26677355 7.20024553 39.31062828 0.88671875 46.046875 C-6.17476719 52.05381011 -14.09813858 54.18281152 -23.16796875 54.0859375 C-30.6523878 53.38700343 -38.8791945 50.30345331 -44.1796875 44.8046875 C-50.96883438 35.19827558 -52.42413378 26.36026007 -51.1796875 14.8046875 C-49.01388741 7.10298584 -43.8936256 0.4613399 -36.90625 -3.4765625 C-24.54503102 -9.22596668 -10.87168193 -8.84699622 0 0 Z M-36.9921875 8.4921875 C-41.01463436 14.58332132 -42.97290166 20.30347688 -41.73828125 27.609375 C-39.85243167 35.02089573 -36.80883951 38.6480285 -30.30078125 42.67578125 C-25.1548708 45.41458073 -19.60631671 45.83515933 -14.0234375 44.15625 C-8.09462186 41.48828296 -3.83909821 37.28263049 -1.0390625 31.4140625 C0.87658148 25.59747079 0.7746854 19.1092429 -1.7421875 13.4921875 C-4.77501529 8.23600553 -9.5574969 4.0952096 -15.1796875 1.8046875 C-24.09818447 0.61370809 -30.51423859 2.30214743 -36.9921875 8.4921875 Z " fill="#FFFFFF" transform="translate(426.1796875,215.1953125)"/>
<path d="M0 0 C2.97 0 5.94 0 9 0 C9 8.25 9 16.5 9 25 C18.57 25 28.14 25 38 25 C38 16.75 38 8.5 38 0 C41.3 0 44.6 0 48 0 C48 19.47 48 38.94 48 59 C44.7 59 41.4 59 38 59 C38 50.75 38 42.5 38 34 C28.43 34 18.86 34 9 34 C9 42.25 9 50.5 9 59 C6.03 59 3.06 59 0 59 C0 39.53 0 20.06 0 0 Z " fill="#FFFFFF" transform="translate(705,209)"/>
<path d="M0 0 C10.23 0 20.46 0 31 0 C31 2.97 31 5.94 31 9 C23.74 9 16.48 9 9 9 C9 14.28 9 19.56 9 25 C15.27 25 21.54 25 28 25 C28 27.97 28 30.94 28 34 C21.73 34 15.46 34 9 34 C9 39.28 9 44.56 9 50 C17.58 50 26.16 50 35 50 C35 52.97 35 55.94 35 59 C23.45 59 11.9 59 0 59 C0 39.53 0 20.06 0 0 Z " fill="#FFFFFF" transform="translate(598,209)"/>
<path d="M0 0 C25.23636364 0 25.23636364 0 31.15625 4.71875 C31.5996875 5.3065625 32.043125 5.894375 32.5 6.5 C32.9640625 7.0878125 33.428125 7.675625 33.90625 8.28125 C36.42681994 12.24214562 36.56642294 16.46052469 36 21 C34.60639717 25.64254438 32.71463915 28.92684399 28.5 31.4375 C21.65517549 34.49322523 18.27544118 34 10 34 C10 42.25 10 50.5 10 59 C6.7 59 3.4 59 0 59 C0 39.53 0 20.06 0 0 Z M10 9 C10 14.28 10 19.56 10 25 C17.54071122 25.70321377 17.54071122 25.70321377 24.1875 22.875 C26.34663968 19.45015775 26.82630866 17.96628159 26 14 C24.31830353 10.8990956 24.31830353 10.8990956 21 9 C17.22851721 8.58153492 13.81542502 8.77015512 10 9 Z " fill="#FFFFFF" transform="translate(329,209)"/>
<path d="M0 0 C-0.33 2.97 -0.66 5.94 -1 9 C-1.60585938 8.7834375 -2.21171875 8.566875 -2.8359375 8.34375 C-11.17367902 5.57305436 -18.97333078 4.4652358 -27.25 8.01953125 C-31.68027976 10.5016746 -34.99653067 14.39202053 -37 19 C-38.74672334 27.53207169 -37.81413306 33.41400538 -33.3125 40.75 C-27.83897603 46.07559089 -23.14958698 47.26082706 -15.5 47.375 C-10.0208316 47.23268394 -5.20284936 46.69888959 0 45 C-0.66 48.3 -1.32 51.6 -2 55 C-11.75208197 58.12967971 -22.35326927 58.74059799 -31.7890625 54.2578125 C-40.08008403 49.54101227 -45.784833 44.17343651 -48.375 34.75 C-50.0771334 25.14864555 -48.60088017 16.03907427 -43 8 C-32.61942023 -4.01840458 -14.17042037 -7.23595934 0 0 Z " fill="#FFFFFF" transform="translate(691,212)"/>
<path d="M0 0 C0.77279297 -0.01611328 1.54558594 -0.03222656 2.34179688 -0.04882812 C7.65592595 -0.0533202 11.31599341 0.91712583 16.0625 3.3125 C15.7325 6.2825 15.4025 9.2525 15.0625 12.3125 C13.804375 11.8175 12.54625 11.3225 11.25 10.8125 C3.22580649 8.17975833 -4.38775933 8.20086875 -11.99609375 12.0390625 C-16.19129885 14.79084693 -19.05396196 18.67356789 -20.9375 23.3125 C-21.69695261 29.98861826 -21.83923254 36.74074555 -18.34765625 42.66015625 C-15.04420689 46.53095702 -10.69709745 48.72596752 -5.9375 50.3125 C1.67596133 50.72848327 8.7763718 50.64406102 16.0625 48.3125 C15.7325 51.2825 15.4025 54.2525 15.0625 57.3125 C7.45084069 61.76810545 -1.61861765 61.42529232 -10.07421875 59.65625 C-19.13662945 56.72392185 -25.16976085 51.29202515 -30.02734375 43.20703125 C-33.27788593 36.44088123 -32.96970722 27.51986639 -31.21875 20.3828125 C-28.02099054 11.89843458 -23.08159848 6.37718568 -14.9375 2.3125 C-9.88155694 0.20952078 -5.38739336 -0.02235433 0 0 Z " fill="#FFFFFF" transform="translate(894.9375,208.6875)"/>
<path d="M0 0 C14.85 0 29.7 0 45 0 C45 2.97 45 5.94 45 9 C39.06 9 33.12 9 27 9 C27 25.5 27 42 27 59 C23.7 59 20.4 59 17 59 C17 42.5 17 26 17 9 C11.39 9 5.78 9 0 9 C0 6.03 0 3.06 0 0 Z " fill="#FFFFFF" transform="translate(541,209)"/>
<path d="M0 0 C3.80946615 -0.57794933 7.20689428 -0.76066836 11 0 C14.15789668 2.6130509 16.01729039 5.79372321 18.0625 9.3125 C18.61615234 10.19357422 19.16980469 11.07464844 19.74023438 11.98242188 C20.76249886 13.61580924 21.7690575 15.25921227 22.75415039 16.9152832 C23.78566527 18.64134739 24.88460831 20.32691247 26 22 C26.66 22 27.32 22 28 22 C29.48435884 20.24119291 29.48435884 20.24119291 30.96875 17.94921875 C31.82533203 16.68368164 31.82533203 16.68368164 32.69921875 15.39257812 C33.29347656 14.49990234 33.88773438 13.60722656 34.5 12.6875 C35.09425781 11.80642578 35.68851563 10.92535156 36.30078125 10.01757812 C37.8738889 7.68277388 39.43923601 5.34306675 41 3 C41.66 2.01 42.32 1.02 43 0 C45.3828125 -0.29296875 45.3828125 -0.29296875 48.125 -0.1875 C49.03507813 -0.16042969 49.94515625 -0.13335937 50.8828125 -0.10546875 C51.58148437 -0.07066406 52.28015625 -0.03585938 53 0 C52.3842532 3.25284798 51.26511578 5.32414325 49.3046875 7.9765625 C48.75296875 8.73066406 48.20125 9.48476562 47.6328125 10.26171875 C47.05273438 11.04160156 46.47265625 11.82148438 45.875 12.625 C44.16669022 14.94624501 42.46175131 17.26879287 40.77661133 19.60693359 C39.58193371 21.2161448 38.33486299 22.78761643 37.04174805 24.31884766 C31.41307257 31.33475636 30.98221766 37.30338754 31.0625 46.125 C31.04638672 47.36765625 31.03027344 48.6103125 31.01367188 49.890625 C30.97862264 52.92822541 30.97474531 55.96240399 31 59 C28.03 59 25.06 59 22 59 C22.06453369 57.93023926 22.06453369 57.93023926 22.13037109 56.83886719 C22.97423465 38.89596625 20.60220389 27.95267157 8.87402344 14.25732422 C0 3.56826472 0 3.56826472 0 0 Z " fill="#FFFFFF" transform="translate(483,209)"/>
<path d="M0 0 C2.97 0 5.94 0 9 0 C9 16.5 9 33 9 50 C17.58 50 26.16 50 35 50 C35 52.97 35 55.94 35 59 C23.45 59 11.9 59 0 59 C0 39.53 0 20.06 0 0 Z " fill="#FFFFFF" transform="translate(450,209)"/>
<path d="M0 0 C1.32 0 2.64 0 4 0 C5.8017352 3.51576736 7.58953794 7.03844426 9.375 10.5625 C9.88289062 11.55314453 10.39078125 12.54378906 10.9140625 13.56445312 C13.48454829 18.65469142 15.70506308 23.43801192 17 29 C17.66 29 18.32 29 19 29 C19.27634277 28.12585449 19.55268555 27.25170898 19.83740234 26.35107422 C20.91937599 23.23239084 22.16677216 20.35249482 23.6015625 17.3828125 C24.09140625 16.36445313 24.58125 15.34609375 25.0859375 14.296875 C25.59382812 13.25015625 26.10171875 12.2034375 26.625 11.125 C27.140625 10.05507813 27.65625 8.98515625 28.1875 7.8828125 C29.45513521 5.25364318 30.7260566 2.62611698 32 0 C33.32 0 34.64 0 36 0 C36.43165053 4.28627447 36.85873209 8.57297328 37.28173828 12.86010742 C37.42601622 14.315959 37.57150299 15.77169133 37.71826172 17.22729492 C37.93000536 19.32960677 38.13727771 21.43232092 38.34375 23.53515625 C38.46943359 24.797229 38.59511719 26.05930176 38.72460938 27.35961914 C38.99413668 30.9224929 39.04829023 34.42853471 39 38 C37.35 38 35.7 38 34 38 C33.34 30.08 32.68 22.16 32 14 C30.576875 16.660625 29.15375 19.32125 27.6875 22.0625 C27.0236731 23.29818726 27.0236731 23.29818726 26.34643555 24.55883789 C24.00248482 28.96449455 21.89466903 33.38289391 20 38 C18.17480469 37.80688477 18.17480469 37.80688477 16 37 C14.53613281 34.86694336 14.53613281 34.86694336 13.203125 32.08984375 C12.71972656 31.10048828 12.23632812 30.11113281 11.73828125 29.09179688 C11.24714844 28.05087891 10.75601563 27.00996094 10.25 25.9375 C9.74339844 24.89271484 9.23679687 23.84792969 8.71484375 22.77148438 C7.46381046 20.18680238 6.22627313 17.59649731 5 15 C4.67 15 4.34 15 4 15 C3.34 22.59 2.68 30.18 2 38 C0.35 38 -1.3 38 -3 38 C-2.73655334 33.8738194 -2.46990815 29.74786097 -2.20043945 25.62207031 C-2.10941444 24.22173505 -2.01922738 22.82134503 -1.92993164 21.42089844 C-1.01582809 7.101645 -1.01582809 7.101645 0 0 Z " fill="#FFFFFF" transform="translate(514,301)"/>
<path d="M0 0 C3.3 0 6.6 0 10 0 C10 19.47 10 38.94 10 59 C6.7 59 3.4 59 0 59 C0 39.53 0 20.06 0 0 Z " fill="#FFFFFF" transform="translate(838,209)"/>
<path d="M0 0 C4.26421817 3.22416496 7.85431792 6.81295376 9.5625 11.9375 C10.51166973 24.58701198 10.51166973 24.58701198 6.5625 29.9375 C1.69227593 35.02909789 -2.68753762 37.59028126 -9.8125 38.25 C-16.56372669 37.6679977 -20.78389464 36.04498735 -25.375 30.9375 C-29.5873585 25.87115538 -29.83966652 21.4595298 -29.78515625 15.01953125 C-29.11297298 9.0605133 -26.09246423 5.4742525 -21.8125 1.5 C-15.64650592 -2.55657505 -6.85358372 -2.11838042 0 0 Z M-21.765625 8.48046875 C-24.56385801 12.78620053 -25.40204866 16.88604928 -24.4375 21.9375 C-22.73593586 26.89116603 -19.9792256 29.96008475 -15.296875 32.28125 C-10.93170918 33.82189676 -7.50176331 33.33399025 -3.25 31.75 C0.37011046 29.41703993 2.64022378 26.78205245 4.5625 22.9375 C5.11228069 17.9263842 5.12404513 14.04053507 2.8125 9.5 C-0.97964073 5.18117306 -3.86468378 3.18488618 -9.6875 2.625 C-14.81681773 3.05244314 -18.36807698 4.53331738 -21.765625 8.48046875 Z " fill="#FFFFFF" transform="translate(796.4375,302.0625)"/>
<path d="M0 0 C1.27230469 0.00902344 2.54460938 0.01804687 3.85546875 0.02734375 C5.31919922 0.04474609 5.31919922 0.04474609 6.8125 0.0625 C6.8125 1.7125 6.8125 3.3625 6.8125 5.0625 C6.1525 5.0625 5.4925 5.0625 4.8125 5.0625 C5.1528125 6.6403125 5.1528125 6.6403125 5.5 8.25 C5.84888738 12.50642602 5.49402183 13.82618055 2.8125 17.0625 C-0.27431608 19.19133867 -3.51514611 19.56172447 -7.1875 20.0625 C-6.59582031 20.30484375 -6.00414062 20.5471875 -5.39453125 20.796875 C3.69411401 24.65176532 3.69411401 24.65176532 6.8125 28.0625 C7.875 31.5 7.875 31.5 7.8125 35.0625 C6.04608828 37.86439446 4.78200178 39.57774911 1.8125 41.0625 C-8.59354586 42.00012008 -8.59354586 42.00012008 -13.375 39.1875 C-15.73456081 36.42111836 -16.15244376 35.4340961 -16.5 31.75 C-16.13571644 27.45145402 -14.88203565 26.27855868 -12.1875 23.0625 C-12.42519206 20.9442921 -12.42519206 20.9442921 -13.1875 19.0625 C-12.8575 18.0725 -12.5275 17.0825 -12.1875 16.0625 C-12.8475 15.0725 -13.5075 14.0825 -14.1875 13.0625 C-14.86290029 5.97079694 -14.86290029 5.97079694 -12.375 2.625 C-8.3202819 -0.27122722 -4.84746187 -0.04447213 0 0 Z M-9.1875 6.0625 C-10.35727494 8.41122531 -10.35727494 8.41122531 -10.1875 11.0625 C-8.6875 13.5625 -8.6875 13.5625 -6.1875 15.0625 C-2.79595705 14.90099795 -1.60453243 14.47953243 0.8125 12.0625 C1.31264953 9.60508463 1.31264953 9.60508463 0.8125 7.0625 C-2.72345507 3.6444101 -5.08557351 3.2837756 -9.1875 6.0625 Z M-11.1875 28.0625 C-12.00334568 31.12158413 -12.00334568 31.12158413 -12.1875 34.0625 C-9.60674598 36.64325402 -7.67782019 37.30302758 -4.125 37.375 C-0.13620844 37.38012368 -0.13620844 37.38012368 2.8125 35.0625 C3.06280977 32.47869823 3.06280977 32.47869823 2.8125 30.0625 C1.33434338 29.3935968 -0.14505472 28.72743641 -1.625 28.0625 C-2.44871094 27.69125 -3.27242187 27.32 -4.12109375 26.9375 C-7.19078772 25.63766739 -8.39939428 26.14567732 -11.1875 28.0625 Z " fill="#FFFFFF" transform="translate(871.1875,310.9375)"/>
<path d="M0 0 C1.65 0 3.3 0 5 0 C5.33 4.95 5.66 9.9 6 15 C7.41152344 13.37578125 7.41152344 13.37578125 8.8515625 11.71875 C10.10850624 10.31172343 11.36636702 8.9055157 12.625 7.5 C13.24246094 6.78457031 13.85992187 6.06914062 14.49609375 5.33203125 C19.22539106 0.10491318 19.22539106 0.10491318 23.4609375 -0.46875 C24.29882812 -0.3140625 25.13671875 -0.159375 26 0 C21.43492321 6.40900977 16.33082532 12.2190161 11 18 C12.33071982 20.93817161 13.80165307 23.06711062 16.0390625 25.3828125 C16.90917969 26.29740234 16.90917969 26.29740234 17.796875 27.23046875 C19.0232957 28.50143892 20.24985998 29.77227057 21.4765625 31.04296875 C22.3428125 31.95369141 22.3428125 31.95369141 23.2265625 32.8828125 C23.75846191 33.43340332 24.29036133 33.98399414 24.83837891 34.55126953 C26 36 26 36 26 38 C23.4375 38.4375 23.4375 38.4375 20 38 C17.30858159 35.99065338 15.1944606 33.53025091 13 31 C12.34 30.25878906 11.68 29.51757812 11 28.75390625 C9.31695133 26.85029676 7.65640473 24.92683815 6 23 C5.67 27.95 5.34 32.9 5 38 C3.35 38 1.7 38 0 38 C0 25.46 0 12.92 0 0 Z " fill="#FFFFFF" transform="translate(397,301)"/>
<path d="M0 0 C4.58026229 2.95172459 6.43885303 5.29300231 7.75 10.625 C8.09237319 15.15288547 7.17915744 18.9311818 4.8125 22.8125 C0.73127867 26.42994618 -2.76177089 27.62212354 -8.1875 27.8125 C-12.56244798 27.13362876 -15.18918993 26.19416853 -18.0625 22.875 C-21.18237621 18.37870782 -21.55407266 15.2194467 -21.1875 9.8125 C-19.44333626 5.13079732 -17.31714161 2.60000809 -13.1875 -0.1875 C-8.48227445 -1.75590852 -4.66101184 -1.73645539 0 0 Z M-15.1875 7.8125 C-16.76205739 10.96161479 -16.53549118 13.33258816 -16.1875 16.8125 C-14.36081062 20.38787156 -14.36081062 20.38787156 -11.1875 22.8125 C-7.02329474 23.91232034 -4.04047855 23.24806351 -0.25 21.3125 C2.52201682 17.95247961 3.12161988 15.13159172 2.8125 10.8125 C1.23819236 7.19159244 0.12367074 6.01994716 -3.1875 3.8125 C-8.68014365 3.20220626 -11.2688844 3.8938844 -15.1875 7.8125 Z " fill="#FFFFFF" transform="translate(902.1875,312.1875)"/>
<path d="M0 0 C3.0625 2.0625 3.0625 2.0625 5 5 C5.45721701 7.85626157 5.29278508 10.07214919 5 13 C4 14 4 14 2.23413086 14.11352539 C1.48526611 14.10828857 0.73640137 14.10305176 -0.03515625 14.09765625 C-0.84404297 14.09443359 -1.65292969 14.09121094 -2.48632812 14.08789062 C-3.33646484 14.07951172 -4.18660156 14.07113281 -5.0625 14.0625 C-5.91650391 14.05798828 -6.77050781 14.05347656 -7.65039062 14.04882812 C-9.76695663 14.03700373 -11.88348685 14.01906769 -14 14 C-11.88673474 18.70842624 -11.88673474 18.70842624 -8 22 C-3.81426024 22.19932094 -0.01424265 22.33808088 4 21 C3.67 22.65 3.34 24.3 3 26 C-1.86781948 28.30580923 -5.55537565 28.07392003 -10.65625 26.90625 C-14.99138293 25.2299986 -16.95137345 22.09725311 -19 18 C-19.54317573 13.0490868 -19.52241949 9.10511815 -17.375 4.5625 C-12.23781357 -0.98025378 -7.12761442 -2.10945941 0 0 Z M-10.3125 4.6875 C-13.21264447 6.78317465 -13.21264447 6.78317465 -14 10 C-9.05 10 -4.1 10 1 10 C-0.41541716 4.95394126 -0.41541716 4.95394126 -3.75 3.4375 C-7.12705606 2.66924436 -7.12705606 2.66924436 -10.3125 4.6875 Z " fill="#FFFFFF" transform="translate(373,312)"/>
<path d="M0 0 C2.1875 1.6875 2.1875 1.6875 4.1875 4.6875 C4.43908747 7.52071795 4.60648897 10.2872312 4.6875 13.125 C4.70396301 19.71523795 4.70396301 19.71523795 7.1875 25.6875 C6.1975 26.3475 5.2075 27.0075 4.1875 27.6875 C3.445 27.3575 2.7025 27.0275 1.9375 26.6875 C-0.90152275 25.33952054 -0.90152275 25.33952054 -4.1875 26.75 C-9.00969921 27.99712049 -10.54764404 27.07581934 -14.8125 24.6875 C-16.38185594 21.54878812 -16.16451103 19.14894178 -15.8125 15.6875 C-13.9375 12.8125 -13.9375 12.8125 -10.8125 10.6875 C-7.4781239 10.00026218 -4.21215309 9.76011395 -0.8125 9.6875 C-1.43783375 7.16386012 -1.43783375 7.16386012 -2.8125 4.6875 C-6.62189588 3.20606827 -9.88446405 3.86535294 -13.8125 4.6875 C-14.1425 3.3675 -14.4725 2.0475 -14.8125 0.6875 C-9.76111274 -1.76165746 -5.1869439 -2.42057382 0 0 Z M-9.8125 15.6875 C-11.30993888 17.67317734 -11.30993888 17.67317734 -11.8125 19.6875 C-10.8225 21.1725 -10.8225 21.1725 -9.8125 22.6875 C-6.85503508 23.27095476 -6.85503508 23.27095476 -3.8125 22.6875 C-1.345161 20.4668949 -0.85097554 19.25180797 -0.625 15.9375 C-0.686875 15.195 -0.74875 14.4525 -0.8125 13.6875 C-4.07093762 13.6875 -6.76071644 14.5975773 -9.8125 15.6875 Z " fill="#FFFFFF" transform="translate(845.8125,312.3125)"/>
<path d="M0 0 C2.46108985 1.96887188 3.13348531 2.80064949 4.1875 5.75 C4.4259963 8.67148666 4.37563792 11.57137194 4.3125 14.5 C4.30347656 15.29277344 4.29445313 16.08554687 4.28515625 16.90234375 C4.26167012 18.85169281 4.22580137 20.80088575 4.1875 22.75 C5.1775 23.08 6.1675 23.41 7.1875 23.75 C6.5275 25.07 5.8675 26.39 5.1875 27.75 C3.8675 27.42 2.5475 27.09 1.1875 26.75 C1.1875 26.09 1.1875 25.43 1.1875 24.75 C0.1975 25.28625 -0.7925 25.8225 -1.8125 26.375 C-6.38793904 28.35054598 -9.21814105 27.46315079 -13.8125 25.75 C-16.2666541 22.06876884 -16.61401627 19.02475344 -15.8125 14.75 C-13.57195177 11.83728731 -11.85677629 10.93653485 -8.25390625 10.29296875 C-5.77020347 10.02874505 -3.30786278 9.84690729 -0.8125 9.75 C-1.43783375 7.22636012 -1.43783375 7.22636012 -2.8125 4.75 C-6.62189588 3.26856827 -9.88446405 3.92785294 -13.8125 4.75 C-14.1425 3.43 -14.4725 2.11 -14.8125 0.75 C-9.76511398 -1.69721746 -5.2154606 -2.31798249 0 0 Z M-9.8125 15.75 C-11.23305068 17.75136244 -11.23305068 17.75136244 -11.8125 19.75 C-10.8225 21.235 -10.8225 21.235 -9.8125 22.75 C-6.6819571 23.14964378 -4.68166239 23.27149743 -1.9375 21.625 C-0.3442901 18.96965017 -0.61035968 16.78210482 -0.8125 13.75 C-4.28539374 13.75 -6.62048426 14.39169543 -9.8125 15.75 Z " fill="#FFFFFF" transform="translate(617.8125,312.25)"/>
<path d="M0 0 C2.43634373 1.94907498 3.10310596 2.85196877 4.1875 5.75 C4.4988127 9.14613857 4.64901788 12.50046303 4.75390625 15.90625 C4.914403 19.64652199 5.12818915 22.56138965 7.1875 25.75 C6.1975 26.41 5.2075 27.07 4.1875 27.75 C3.445 27.42 2.7025 27.09 1.9375 26.75 C-0.90152275 25.40202054 -0.90152275 25.40202054 -4.1875 26.8125 C-9.00969921 28.05962049 -10.54764404 27.13831934 -14.8125 24.75 C-16.38185594 21.61128812 -16.16451103 19.21144178 -15.8125 15.75 C-13.9375 12.875 -13.9375 12.875 -10.8125 10.75 C-7.4781239 10.06276218 -4.21215309 9.82261395 -0.8125 9.75 C-1.43783375 7.22636012 -1.43783375 7.22636012 -2.8125 4.75 C-6.62189588 3.26856827 -9.88446405 3.92785294 -13.8125 4.75 C-14.1425 3.43 -14.4725 2.11 -14.8125 0.75 C-9.76511398 -1.69721746 -5.2154606 -2.31798249 0 0 Z M-9.8125 15.75 C-10.4725 16.41 -11.1325 17.07 -11.8125 17.75 C-11.40721099 20.53237655 -11.40721099 20.53237655 -9.8125 22.75 C-6.8967309 23.16702122 -6.8967309 23.16702122 -3.8125 22.75 C-1.345161 20.5293949 -0.85097554 19.31430797 -0.625 16 C-0.686875 15.2575 -0.74875 14.515 -0.8125 13.75 C-4.00343844 13.75 -6.79365241 14.77965613 -9.8125 15.75 Z " fill="#FFFFFF" transform="translate(486.8125,312.25)"/>
<path d="M0 0 C4.09536667 3.04227239 4.09536667 3.04227239 4.47460938 5.44091797 C4.50264648 6.51817139 4.50264648 6.51817139 4.53125 7.6171875 C4.56089844 8.40480469 4.59054687 9.19242187 4.62109375 10.00390625 C4.64300781 10.82761719 4.66492188 11.65132813 4.6875 12.5 C4.73107819 14.12264656 4.78288854 15.74509724 4.84375 17.3671875 C4.87178711 18.44782471 4.87178711 18.44782471 4.90039062 19.55029297 C5.22630576 21.90541785 6.02528664 23.56560896 7.1875 25.625 C6.1975 26.285 5.2075 26.945 4.1875 27.625 C3.6925 27.25375 3.1975 26.8825 2.6875 26.5 C-0.17042241 25.49972716 -0.93422168 25.78399249 -3.75 26.625 C-6.58128483 27.43544213 -7.66646669 27.65745185 -10.625 27 C-13.20482984 25.37839267 -14.47069164 24.38316162 -15.8125 21.625 C-15.74577011 17.88812592 -15.31532861 15.45576031 -13.375 12.25 C-9.45517965 9.76426027 -5.37387212 9.79909817 -0.8125 9.625 C-0.8125 7.975 -0.8125 6.325 -0.8125 4.625 C-5.44171525 3.6088308 -9.15712607 3.78703269 -13.8125 4.625 C-13.4825 2.975 -13.1525 1.325 -12.8125 -0.375 C-8.23016133 -1.90244622 -4.39666356 -2.14947996 0 0 Z M-9.8125 15.625 C-10.49208603 18.02219432 -10.49208603 18.02219432 -10.8125 20.625 C-10.1525 21.285 -9.4925 21.945 -8.8125 22.625 C-5.27787413 22.62010849 -5.27787413 22.62010849 -1.8125 21.625 C0.42642859 18.80200309 0.1875 17.3458921 0.1875 13.625 C-3.42279169 13.625 -6.37056676 14.58592582 -9.8125 15.625 Z " fill="#FFFFFF" transform="translate(572.8125,312.375)"/>
<path d="M0 0 C1.32 0 2.64 0 4 0 C4.33 8.25 4.66 16.5 5 25 C7.289375 22.525 7.289375 22.525 9.625 20 C14.17884615 15.07692308 14.17884615 15.07692308 18.3359375 14.6875 C19.21507812 14.790625 20.09421875 14.89375 21 15 C17.49102731 19.18423892 13.91939465 23.19588166 10 27 C11.5278414 30.67689304 13.75627506 32.90198808 16.625 35.625 C18.12058838 37.04510127 19.58886398 38.49594968 21 40 C21 40.66 21 41.32 21 42 C16.97948601 42.47161454 15.46566512 42.36728517 12.2265625 39.8125 C10.93878906 38.4203125 10.93878906 38.4203125 9.625 37 C8.75101563 36.071875 7.87703125 35.14375 6.9765625 34.1875 C6.32429687 33.465625 5.67203125 32.74375 5 32 C4.67 35.3 4.34 38.6 4 42 C2.68 42 1.36 42 0 42 C0 28.14 0 14.28 0 0 Z " fill="#FFFFFF" transform="translate(717,297)"/>
<path d="M0 0 C2.93087207 2.25451698 3.82814288 3.48442865 5 7 C5.08106686 8.55421729 5.10756898 10.11167027 5.09765625 11.66796875 C5.09443359 12.56064453 5.09121094 13.45332031 5.08789062 14.37304688 C5.07951172 15.30181641 5.07113281 16.23058594 5.0625 17.1875 C5.05798828 18.12787109 5.05347656 19.06824219 5.04882812 20.03710938 C5.03704626 22.35813712 5.02059558 24.67903644 5 27 C3.35 27 1.7 27 0 27 C-0.01981934 26.40461426 -0.03963867 25.80922852 -0.06005859 25.19580078 C-0.15516126 22.50507847 -0.26489842 19.81514852 -0.375 17.125 C-0.4059375 16.18785156 -0.436875 15.25070312 -0.46875 14.28515625 C-0.50742187 13.38925781 -0.54609375 12.49335938 -0.5859375 11.5703125 C-0.6173584 10.74289551 -0.6487793 9.91547852 -0.68115234 9.06298828 C-0.82599137 6.78013915 -0.82599137 6.78013915 -3 5 C-7.61454049 4.44867894 -7.61454049 4.44867894 -11.69067383 6.24145508 C-13.32348168 8.43446552 -13.42057472 9.73312653 -13.51171875 12.44921875 C-13.54716797 13.29677734 -13.58261719 14.14433594 -13.61914062 15.01757812 C-13.64169922 15.89865234 -13.66425781 16.77972656 -13.6875 17.6875 C-13.72166016 18.58017578 -13.75582031 19.47285156 -13.79101562 20.39257812 C-13.87345648 22.59492671 -13.94261551 24.79687938 -14 27 C-15.32 27 -16.64 27 -18 27 C-18 18.09 -18 9.18 -18 0 C-15.525 0.495 -15.525 0.495 -13 1 C-11.8553125 0.505 -11.8553125 0.505 -10.6875 0 C-6.93485664 -1.39633241 -3.82146279 -1.11925688 0 0 Z " fill="#FFFFFF" transform="translate(679,312)"/>
<path d="M0 0 C1.65 0 3.3 0 5 0 C5.01981934 0.59538574 5.03963867 1.19077148 5.06005859 1.80419922 C5.15516126 4.49492153 5.26489842 7.18485148 5.375 9.875 C5.4059375 10.81214844 5.436875 11.74929688 5.46875 12.71484375 C5.50742187 13.61074219 5.54609375 14.50664062 5.5859375 15.4296875 C5.6173584 16.25710449 5.6487793 17.08452148 5.68115234 17.93701172 C5.82599137 20.21986085 5.82599137 20.21986085 8 22 C10.21072977 22.24253813 10.21072977 22.24253813 12.625 22.125 C13.44226563 22.10695313 14.25953125 22.08890625 15.1015625 22.0703125 C16.04128906 22.03550781 16.04128906 22.03550781 17 22 C17.7795458 19.19252545 18.1710149 16.57970192 18.31640625 13.671875 C18.35830078 12.87265625 18.40019531 12.0734375 18.44335938 11.25 C18.48267578 10.425 18.52199219 9.6 18.5625 8.75 C18.60568359 7.90953125 18.64886719 7.0690625 18.69335938 6.203125 C18.79908543 4.13559329 18.90001295 2.06781719 19 0 C20.32 0 21.64 0 23 0 C23 8.91 23 17.82 23 27 C21.35 26.67 19.7 26.34 18 26 C15.96915988 26.36545116 15.96915988 26.36545116 14.0625 27.0625 C10.11380989 28.16515309 7.75978108 27.83617216 4 26 C1.50394259 24.02036826 1.03584537 23.10753611 0 20 C-0.08106686 18.44578271 -0.10756898 16.88832973 -0.09765625 15.33203125 C-0.09443359 14.43935547 -0.09121094 13.54667969 -0.08789062 12.62695312 C-0.07951172 11.69818359 -0.07113281 10.76941406 -0.0625 9.8125 C-0.05798828 8.87212891 -0.05347656 7.93175781 -0.04882812 6.96289062 C-0.03704626 4.64186288 -0.02059558 2.32096356 0 0 Z " fill="#FFFFFF" transform="translate(426,312)"/>
<path d="M0 0 C9.9 0 19.8 0 30 0 C30 1.32 30 2.64 30 4 C25.71 4 21.42 4 17 4 C17 15.22 17 26.44 17 38 C15.35 38 13.7 38 12 38 C12 26.78 12 15.56 12 4 C8.04 4 4.08 4 0 4 C0 2.68 0 1.36 0 0 Z " fill="#FFFFFF" transform="translate(328,301)"/>
<path d="M0 0 C0 2.64 0 5.28 0 8 C2.97 8 5.94 8 9 8 C9 9.32 9 10.64 9 12 C6.03 12 3.06 12 0 12 C0.33 17.94 0.66 23.88 1 30 C2.98 30.33 4.96 30.66 7 31 C6.67 32.32 6.34 33.64 6 35 C3.35963647 35.97791242 2.12733368 36.03638105 -0.625 35.25 C-3 34 -3 34 -5 31 C-5.22705078 28.9152832 -5.22705078 28.9152832 -5.1953125 26.55078125 C-5.18564453 25.27944336 -5.18564453 25.27944336 -5.17578125 23.98242188 C-5.15902344 23.10134766 -5.14226563 22.22027344 -5.125 21.3125 C-5.11597656 20.41982422 -5.10695313 19.52714844 -5.09765625 18.60742188 C-5.07409748 16.40467686 -5.04120329 14.20247412 -5 12 C-6.65 12 -8.3 12 -10 12 C-10 10.68 -10 9.36 -10 8 C-8.35 8 -6.7 8 -5 8 C-5.061875 7.05125 -5.12375 6.1025 -5.1875 5.125 C-5.125625 4.09375 -5.06375 3.0625 -5 2 C-2 0 -2 0 0 0 Z " fill="#FFFFFF" transform="translate(635,304)"/>
<path d="M0 0 C0 2.64 0 5.28 0 8 C3.3 8 6.6 8 10 8 C9.67 9.32 9.34 10.64 9 12 C6.03 12 3.06 12 0 12 C0.14053872 14.62538284 0.28718947 17.25017427 0.4375 19.875 C0.47681641 20.62136719 0.51613281 21.36773437 0.55664062 22.13671875 C0.71573624 26.19986864 0.71573624 26.19986864 2 30 C4.52733235 30.65555119 4.52733235 30.65555119 7 31 C7 32.32 7 33.64 7 35 C3.67707176 36.04434887 2.43241099 36.2162055 -0.75 34.625 C-3 33 -3 33 -4 32 C-4.08669432 30.5112814 -4.10703494 29.018555 -4.09765625 27.52734375 C-4.09443359 26.62822266 -4.09121094 25.72910156 -4.08789062 24.80273438 C-4.07951172 23.85720703 -4.07113281 22.91167969 -4.0625 21.9375 C-4.05798828 20.98810547 -4.05347656 20.03871094 -4.04882812 19.06054688 C-4.0370011 16.70696935 -4.02052025 14.35351523 -4 12 C-5.98 12 -7.96 12 -10 12 C-10 10.68 -10 9.36 -10 8 C-8.02 8 -6.04 8 -4 8 C-4.061875 7.05125 -4.12375 6.1025 -4.1875 5.125 C-4.125625 4.09375 -4.06375 3.0625 -4 2 C-1 0 -1 0 0 0 Z " fill="#FFFFFF" transform="translate(590,304)"/>
<path d="M0 0 C0 2.64 0 5.28 0 8 C3.3 8 6.6 8 10 8 C9.67 9.32 9.34 10.64 9 12 C6.03 12 3.06 12 0 12 C0.33 17.61 0.66 23.22 1 29 C2.98 29.66 4.96 30.32 7 31 C7 32.32 7 33.64 7 35 C3.67707176 36.04434887 2.43241099 36.2162055 -0.75 34.625 C-3 33 -3 33 -4 32 C-4.08669432 30.5112814 -4.10703494 29.018555 -4.09765625 27.52734375 C-4.09443359 26.62822266 -4.09121094 25.72910156 -4.08789062 24.80273438 C-4.07951172 23.85720703 -4.07113281 22.91167969 -4.0625 21.9375 C-4.05798828 20.98810547 -4.05347656 20.03871094 -4.04882812 19.06054688 C-4.0370011 16.70696935 -4.02052025 14.35351523 -4 12 C-5.98 12 -7.96 12 -10 12 C-10 10.68 -10 9.36 -10 8 C-8.02 8 -6.04 8 -4 8 C-4.061875 7.05125 -4.12375 6.1025 -4.1875 5.125 C-4.125625 4.09375 -4.06375 3.0625 -4 2 C-1 0 -1 0 0 0 Z " fill="#FFFFFF" transform="translate(818,304)"/>
<path d="M0 0 C1.32 0 2.64 0 4 0 C4.33 0.66 4.66 1.32 5 2 C5.99 1.34 6.98 0.68 8 0 C11.1875 -0.125 11.1875 -0.125 14 0 C14 1.32 14 2.64 14 4 C12.6078125 4.3403125 12.6078125 4.3403125 11.1875 4.6875 C7.2996409 6.28838316 6.72728805 7.22406797 5 11 C4.52289692 13.76733952 4.40019523 16.50875806 4.3125 19.3125 C4.27833984 20.05306641 4.24417969 20.79363281 4.20898438 21.55664062 C4.12706446 23.37058164 4.06184178 25.18526353 4 27 C2.68 27 1.36 27 0 27 C0 18.09 0 9.18 0 0 Z " fill="#FFFFFF" transform="translate(456,312)"/>
<path d="M0 0 C1.65 0 3.3 0 5 0 C5 8.91 5 17.82 5 27 C3.35 27 1.7 27 0 27 C0 18.09 0 9.18 0 0 Z " fill="#FFFFFF" transform="translate(742,312)"/>
<path d="M0 0 C1.65 0 3.3 0 5 0 C5 8.91 5 17.82 5 27 C3.35 27 1.7 27 0 27 C0 18.09 0 9.18 0 0 Z " fill="#FFFFFF" transform="translate(649,312)"/>
<path d="M0 0 C1.32 0 2.64 0 4 0 C4 8.91 4 17.82 4 27 C2.68 27 1.36 27 0 27 C0 18.09 0 9.18 0 0 Z " fill="#FFFFFF" transform="translate(691,312)"/>
<path d="M0 0 C1.32 0.66 2.64 1.32 4 2 C3.67 3.32 3.34 4.64 3 6 C1.35 5.67 -0.3 5.34 -2 5 C-1.125 1.125 -1.125 1.125 0 0 Z " fill="#FFFFFF" transform="translate(692,302)"/>
<path d="M0 0 C2.0625 0.4375 2.0625 0.4375 4 1 C3.67 2.65 3.34 4.3 3 6 C1.68 6 0.36 6 -1 6 C-1.042721 4.33388095 -1.04063832 2.66617115 -1 1 C-0.67 0.67 -0.34 0.34 0 0 Z " fill="#FFFFFF" transform="translate(650,302)"/>
<path d="M0 0 C0.99 0.33 1.98 0.66 3 1 C2.67 2.65 2.34 4.3 2 6 C0.68 5.67 -0.64 5.34 -2 5 C-2 3.68 -2 2.36 -2 1 C-1.34 0.67 -0.68 0.34 0 0 Z " fill="#FFFFFF" transform="translate(744,302)"/>
</svg>
